<svg id="Capa_1" enable-background="new 0 0 512 512" height="512" viewBox="0 0 512 512" width="512" xmlns="http://www.w3.org/2000/svg"><g><g><path d="m362.437 450.811-57.67-39.848c-9.12-6.302-21.621-4.017-27.923 5.103-6.302 9.12-4.017 21.621 5.103 27.923l55.335 38.235z" fill="#ffcbbe"/><path d="m149.563 450.811 57.67-39.848c9.12-6.302 21.621-4.017 27.923 5.103 6.302 9.12 4.017 21.621-5.103 27.923l-55.335 38.235z" fill="#ffcbbe"/><circle cx="256" cy="169.313" fill="#928cd9" r="161.813"/><circle cx="256" cy="169.313" fill="#f9d171" r="117.725"/><path d="m168.275 169.313c0-59.936 44.79-109.411 102.725-116.778-4.912-.625-9.918-.946-15-.946-65.018 0-117.725 52.707-117.725 117.725 0 65.017 52.707 117.725 117.725 117.725 5.082 0 10.088-.322 15-.947-57.934-7.369-102.725-56.843-102.725-116.779z" fill="#ffb25a"/><path d="m431.782 369.303c0-11.085 8.986-20.071 20.071-20.071 11.085 0 20.071 8.986 20.071 20.071v135.197h-160.571v-135.197c0-11.085 8.986-20.071 20.071-20.071 11.085 0 20.071 8.986 20.071 20.071 0-11.085 8.986-20.071 20.071-20.071 11.085 0 20.071 8.986 20.071 20.071 0-11.085 8.986-20.071 20.071-20.071 11.087 0 20.074 8.986 20.074 20.071z" fill="#ffddcf"/><path d="m80.218 369.303c0-11.085-8.986-20.071-20.071-20.071-11.085 0-20.071 8.986-20.071 20.071v135.197h160.572v-135.197c0-11.085-8.986-20.071-20.071-20.071-11.085 0-20.071 8.986-20.071 20.071 0-11.085-8.986-20.071-20.071-20.071-11.085 0-20.071 8.986-20.071 20.071 0-11.085-8.986-20.071-20.071-20.071-11.088 0-20.075 8.986-20.075 20.071z" fill="#ffddcf"/><path d="m71.647 352.867c-3.258-2.284-7.219-3.635-11.5-3.635-11.085 0-20.071 8.986-20.071 20.071v135.197h23v-135.197c-.001-6.803 3.393-12.805 8.571-16.436z" fill="#ffcbbe"/></g><g><path d="m224.012 219.499h-5.986c-4.142 0-7.5 3.358-7.5 7.5s3.358 7.5 7.5 7.5c0 0 15.379-.008 18.156-.021v6.006c0 4.142 3.358 7.5 7.5 7.5s7.5-3.358 7.5-7.5v-6.066c4.763-.018 9.593-.035 13.499-.045v6.111c0 4.142 3.358 7.5 7.5 7.5s7.5-3.358 7.5-7.5v-7.149c17.029-3.995 29.75-19.298 29.75-37.528 0-14.574-8.129-27.282-20.09-33.835 6.013-6.143 9.73-14.542 9.73-23.797 0-13.529-7.933-25.238-19.391-30.726v-9.307c0-4.142-3.358-7.5-7.5-7.5s-7.5 3.358-7.5 7.5v5.985h-13.499v-5.985c0-4.142-3.358-7.5-7.5-7.5s-7.5 3.358-7.5 7.5v5.985h-18.156c-4.142 0-7.5 3.358-7.5 7.5s3.358 7.5 7.5 7.5h5.986v100.372zm46.865-.138c-5.801 0-22.146.064-31.865.105v-47.16c4.039-.017 31.865-.054 31.865-.054 12.988 0 23.555 10.566 23.555 23.555 0 12.988-10.567 23.554-23.555 23.554zm-5.852-62.14c-2.449 0-26.012.031-26.012.031v-38.125h26.012c10.503 0 19.047 8.544 19.047 19.047s-8.544 19.047-19.047 19.047z"/><path d="m256 338.626c93.359 0 169.313-75.954 169.313-169.313 0-40.92-14.799-80.424-41.67-111.235-2.723-3.122-7.46-3.445-10.582-.723-3.122 2.723-3.445 7.46-.723 10.582 24.488 28.078 37.975 64.081 37.975 101.375 0 85.088-69.225 154.313-154.313 154.313s-154.313-69.225-154.313-154.313 69.224-154.312 154.313-154.312c35.086 0 68.149 11.477 95.615 33.19 3.249 2.568 7.966 2.017 10.535-1.232 2.568-3.25 2.017-7.966-1.232-10.535-30.142-23.828-66.422-36.423-104.918-36.423-93.36 0-169.313 75.954-169.313 169.313s75.953 169.313 169.313 169.313z"/><path d="m180.242 259.728c-2.456 3.335-1.742 8.03 1.594 10.486 21.615 15.913 47.261 24.324 74.164 24.324 69.049 0 125.225-56.176 125.225-125.225s-56.175-125.225-125.225-125.225-125.225 56.175-125.225 125.225c0 28.817 10.034 56.955 28.253 79.229 2.622 3.206 7.347 3.679 10.554 1.057 3.206-2.623 3.679-7.348 1.057-10.554-16.033-19.602-24.863-44.366-24.863-69.732 0-60.778 49.447-110.225 110.225-110.225s110.225 49.446 110.225 110.225-49.448 110.225-110.226 110.225c-23.681 0-46.251-7.401-65.271-21.404-3.336-2.455-8.031-1.743-10.487 1.594z"/><path d="m391.639 350.419c-5.032-5.345-12.168-8.687-20.072-8.687-7.903 0-15.04 3.342-20.071 8.687-5.032-5.345-12.168-8.687-20.072-8.687-15.203 0-27.571 12.368-27.571 27.571v32.68c-11.73-4.832-25.678-1.035-33.179 9.819-8.642 12.508-5.497 29.714 7.01 38.356l26.169 18.082v36.26c0 4.142 3.358 7.5 7.5 7.5h160.572c4.142 0 7.5-3.358 7.5-7.5v-135.197c0-15.203-12.369-27.571-27.571-27.571-7.903 0-15.04 3.342-20.072 8.687-5.032-5.345-12.168-8.687-20.071-8.687s-15.04 3.342-20.072 8.687zm-105.428 87.399c-5.703-3.94-7.137-11.786-3.196-17.489 3.921-5.675 11.76-7.155 17.489-3.196l3.349 2.314v30.561zm138.07-68.515v20.684c0 4.142 3.358 7.5 7.5 7.5s7.5-3.358 7.5-7.5v-20.684c0-6.932 5.64-12.571 12.572-12.571s12.571 5.639 12.571 12.571v127.697h-145.571v-127.697c0-6.932 5.64-12.571 12.571-12.571 6.932 0 12.572 5.639 12.572 12.571v20.684c0 4.142 3.358 7.5 7.5 7.5s7.5-3.358 7.5-7.5v-20.684c0-6.932 5.64-12.571 12.571-12.571 6.932 0 12.572 5.639 12.572 12.571v20.684c0 4.142 3.358 7.5 7.5 7.5s7.5-3.358 7.5-7.5v-20.684c0-6.932 5.64-12.571 12.571-12.571s12.571 5.639 12.571 12.571z"/><path d="m40.075 512h160.572c4.142 0 7.5-3.358 7.5-7.5v-36.259l26.168-18.082c6.059-4.187 10.125-10.482 11.449-17.727s-.252-14.571-4.439-20.63c-7.5-10.854-21.448-14.65-33.178-9.819v-32.68c0-15.203-12.369-27.571-27.572-27.571-7.903 0-15.04 3.342-20.071 8.687-5.032-5.345-12.168-8.687-20.071-8.687s-15.04 3.342-20.072 8.687c-5.032-5.345-12.168-8.687-20.071-8.687s-15.04 3.342-20.071 8.687c-5.032-5.345-12.168-8.687-20.072-8.687-15.203 0-27.571 12.368-27.571 27.571v135.197c-.001 4.142 3.357 7.5 7.499 7.5zm171.42-94.867c5.703-3.94 13.549-2.506 17.489 3.196 3.949 5.715 2.522 13.539-3.196 17.489l-17.641 12.19v-30.562zm-163.92-47.83c0-6.932 5.64-12.571 12.571-12.571 6.932 0 12.572 5.639 12.572 12.571v20.684c0 4.142 3.358 7.5 7.5 7.5s7.5-3.358 7.5-7.5v-20.684c0-6.932 5.64-12.571 12.571-12.571s12.571 5.639 12.571 12.571v20.684c0 4.142 3.358 7.5 7.5 7.5s7.5-3.358 7.5-7.5v-20.684c0-6.932 5.64-12.571 12.572-12.571s12.571 5.639 12.571 12.571v20.684c0 4.142 3.358 7.5 7.5 7.5s7.5-3.358 7.5-7.5v-20.684c0-6.932 5.64-12.571 12.571-12.571 6.932 0 12.572 5.639 12.572 12.571v127.697h-145.571z"/></g></g></svg>