<svg height="511pt" viewBox="-17 0 511 511.99958" width="511pt" xmlns="http://www.w3.org/2000/svg"><path d="m382.097656 9.867188-346.414062 121.328124c-21.730469 7.613282-33.175782 31.398438-25.566406 53.128907l14.386718 41.070312 401.546875-140.640625c13.011719-4.554687 19.863281-18.796875 15.308594-31.808594l-6.136719-17.511718c-7.609375-21.730469-31.394531-33.175782-53.125-25.566406zm0 0" fill="#76e7e7"/><path d="m107.0625 106.195312-71.378906 25c-21.730469 7.613282-33.175782 31.398438-25.566406 53.128907l14.386718 41.070312 188.011719-65.851562zm0 0" fill="#00bdba"/><path d="m35.683594 131.195312c-10.863282 3.804688-19.160156 11.65625-23.785156 21.269532l93.019531 44.761718 73.105469-25.605468-108.578126-52.25zm0 0" fill="#3d4751"/><path d="m142.925781 93.636719 108.582031 52.25 73.105469-25.601563-108.582031-52.253906zm0 0" fill="#546370"/><path d="m398.09375 94.546875 27.960938-9.792969c12.390624-4.339844 19.171874-17.464844 15.851562-29.945312l-79.273438-38.121094-24.042968 8.421875-49.074219 17.1875zm0 0" fill="#546370"/><path d="m428.449219 504.5h-367.046875c-23.023438 0-41.691406-18.664062-41.691406-41.691406v-223.890625c0-23.023438 18.667968-41.691407 41.691406-41.691407h367.046875c23.023437 0 41.691406 18.664063 41.691406 41.691407v223.890625c0 23.027344-18.667969 41.691406-41.691406 41.691406zm0 0" fill="#8697a6"/><path d="m61.402344 197.226562c-23.023438 0-41.691406 18.667969-41.691406 41.691407v223.894531c0 23.023438 18.667968 41.6875 41.691406 41.6875h66.164062c-28.394531-15.523438-26.519531-49.628906-26.519531-49.628906s.230469-59.230469.238281-99.996094c.003906-22.570312 10.15625-43.898438 27.546875-58.289062 42.113281-34.84375 70.875-75.832032 85.410157-99.355469h-152.839844zm0 0" fill="#6b7d8e"/><path d="m428.449219 197.226562h-367.046875c-23.023438 0-41.691406 18.667969-41.691406 41.691407v43.515625h450.425781v-43.515625c.003906-23.023438-18.664063-41.691407-41.6875-41.691407zm0 0" fill="#b0f0ef"/><path d="m214.242188 197.226562h-152.839844c-23.023438 0-41.691406 18.667969-41.691406 41.691407v43.515625h125.1875c33.4375-31.273438 56.738281-64.804688 69.34375-85.207032zm0 0" fill="#76e7e7"/><path d="m182.378906 197.226562h-77.460937l-85.203125 85.207032h77.457031zm0 0" fill="#546370"/><path d="m252.492188 282.433594 85.203124-85.207032h-77.457031l-85.207031 85.207032zm0 0" fill="#6b7d8e"/><path d="m407.808594 282.433594 59.25-59.25c-6.210938-15.222656-21.152344-25.957032-38.609375-25.957032h-12.890625l-85.207032 85.207032zm0 0" fill="#6b7d8e"/><path d="m180.90625 392.410156c0-13.179687-13.417969-23.867187-29.972656-23.867187-16.554688 0-29.972656 10.6875-29.972656 23.867187 0 13.183594 13.417968 23.871094 29.972656 23.871094 16.554687 0 29.972656-10.6875 29.972656-23.871094zm0 0" fill="#ffb3dd"/><path d="m368.890625 392.410156c0-13.179687-13.417969-23.867187-29.972656-23.867187-16.550781 0-29.972657 10.6875-29.972657 23.867187 0 13.183594 13.421876 23.871094 29.972657 23.871094 16.554687 0 29.972656-10.6875 29.972656-23.871094zm0 0" fill="#ffb3dd"/><path d="m265.785156 386.363281c0-13.636719-9.339844-24.695312-20.859375-24.695312s-20.855469 11.058593-20.855469 24.695312c0 13.640625 9.335938 24.699219 20.855469 24.699219s20.859375-11.058594 20.859375-24.699219zm0 0" fill="#454545"/><path d="m333.082031 371.808594v-12.449219c0-4.140625-3.359375-7.5-7.5-7.5-4.144531 0-7.5 3.359375-7.5 7.5v12.449219c0 4.144531 3.355469 7.5 7.5 7.5 4.140625 0 7.5-3.355469 7.5-7.5zm0 0"/><path d="m171.773438 371.808594v-12.449219c0-4.140625-3.359376-7.5-7.5-7.5-4.144532 0-7.5 3.359375-7.5 7.5v12.449219c0 4.144531 3.355468 7.5 7.5 7.5 4.140624 0 7.5-3.355469 7.5-7.5zm0 0"/><path d="m428.449219 189.726562h-279.429688l279.511719-97.894531c16.890625-5.914062 25.820312-24.472656 19.90625-41.363281l-6.132812-17.515625c-4.34375-12.398437-13.257813-22.367187-25.097657-28.0625-11.839843-5.695313-25.1875-6.441406-37.589843-2.101563 0 0-348.929688 122.296876-349.015626 122.332032-11.191406 4.628906-20.167968 13.09375-25.460937 24.09375-.117187.238281-8.8125 18.722656-2.101563 37.585937l12.253907 34.992188c-1.988281 5.335937-3.078125 11.105469-3.078125 17.125v148.261719c0 4.140624 3.355468 7.5 7.496094 7.5 4.144531 0 7.5-3.359376 7.5-7.5v-97.246094h435.429687v172.878906c0 18.851562-15.339844 34.1875-34.191406 34.1875h-367.046875c-18.851563 0-34.1875-15.335938-34.1875-34.1875v-46.53125c0-4.144531-3.359375-7.5-7.5-7.5-4.144532 0-7.5 3.355469-7.5 7.5v46.53125c0 27.121094 22.066406 49.1875 49.1875 49.1875h367.046875c27.125 0 49.191406-22.066406 49.191406-49.1875v-223.894531c0-27.125-22.066406-49.191407-49.191406-49.191407zm-157.851563 85.207032 70.207032-70.207032h56.644531l-70.207031 70.207032zm-155.320312 0 70.207031-70.207032h56.644531l-70.203125 70.207032zm-53.875-70.207032h25.410156l-59.597656 59.601563v-25.410156c0-20.269531 15.84375-34.191407 34.1875-34.191407zm-23.238282-66.453124 30.828126-10.796876 89.464843 43.054688-53.085937 18.589844-82.695313-39.792969c1.152344-1.460937 4.808594-6.5 15.488281-11.054687zm50.847657-17.808594 53.460937-18.726563 89.46875 43.054688-53.464844 18.726562zm200.050781-70.066406 89.464844 43.054687-126.566406 44.328125-89.46875-43.050781 53.085937-18.59375 72.410156 34.84375c3.730469 1.796875 8.210938.226562 10.007813-3.503907 1.796875-3.734374.226562-8.214843-3.503906-10.011718l-58.894532-28.339844zm134.511719 27.277343-25.023438 8.765625-89.46875-43.054687 53.101563-18.597657 73.011718 35.113282c.570313 7.679687-4.015624 15.109375-11.621093 17.773437zm-12.867188-59.269531c13.917969 6.417969 18.265625 21.859375 18.265625 21.859375l-46.765625-22.488281s13.496094-6.289063 28.5.628906zm-393.511719 163.4375c-2.21875-6.339844-2.445312-12.898438-1.023437-19l55.867187 26.882812h-10.636718c-14.179688 0-26.96875 6.042969-35.953125 15.671876zm20.625 93.089844 70.207032-70.207032h56.246094l-70.207032 70.207032zm155.316407 0 70.207031-70.207032h56.246094l-70.207032 70.207032zm155.320312 0 70.207031-70.207032h9.785157c12.570312 0 23.566406 6.820313 29.507812 16.953126l-53.253906 53.253906zm77.460938 0 36.703125-36.703125c.007812.230469.019531 36.703125.019531 36.703125zm0 0"/><path d="m273.285156 386.363281c0-17.75-12.722656-32.195312-28.359375-32.195312s-28.355469 14.445312-28.355469 32.195312c0 17.753907 12.71875 32.199219 28.355469 32.199219s28.359375-14.445312 28.359375-32.199219zm-41.71875 0c0-9.480469 5.992188-17.195312 13.359375-17.195312 7.367188 0 13.359375 7.714843 13.359375 17.195312 0 9.484375-5.992187 17.199219-13.359375 17.199219-7.363281 0-13.359375-7.714844-13.359375-17.199219zm0 0"/></svg>