<?xml version="1.0"?>
<svg xmlns="http://www.w3.org/2000/svg" viewBox="0 0 64 64" width="512" height="512"><g id="flat"><path d="M12.105,17.553,10.382,21H8a1,1,0,0,0-.857.485L4.434,26H2v2H5a1,1,0,0,0,.857-.485L8.566,23H14V21H12.618l1-2H18V17H13A1,1,0,0,0,12.105,17.553Z" style="fill:#d6d9db"/><path d="M58,13a1,1,0,0,0-.707.293L54.586,16H51v2h4a1,1,0,0,0,.707-.293L58.414,15H62V13Z" style="fill:#d6d9db"/><path d="M54.707,33.293l-1.414,1.414,2,2A1,1,0,0,0,56,37h6V35H56.414Z" style="fill:#d6d9db"/><path d="M57.832,3.445A1,1,0,0,0,57.061,3a.99.99,0,0,0-.82.348L51.052,9.4,48.8,6.4a1,1,0,0,0-.775-.4,1.025,1.025,0,0,0-.794.359l-5,6,1.538,1.282,4.19-5.03L50.2,11.6a1,1,0,0,0,.768.4.974.974,0,0,0,.791-.349l5.141-6,3.268,4.9,1.664-1.11Z" style="fill:#7ea633"/><path d="M22.293,6.293,20.056,8.53l-5.3-6.18A1,1,0,0,0,14,2h0a1,1,0,0,0-.761.354l-11,13,1.528,1.292,10.241-12.1,4.634,5.4-1.346,1.346,1.414,1.414L23,8.414l5.293,5.293,1.414-1.414-6-6A1,1,0,0,0,22.293,6.293Z" style="fill:#7ea633"/><path d="M36.784,13h0a3.923,3.923,0,0,1-3.846-4.692l.431-2.155A3.924,3.924,0,0,1,37.216,3h0a3.923,3.923,0,0,1,3.846,4.692l-.431,2.155A3.924,3.924,0,0,1,36.784,13Z" style="fill:#fec9a3"/><path d="M8,50v6.807a1.193,1.193,0,0,0,2.3.443L12,53V49.333Z" style="fill:#98bf4e"/><polygon points="40.881 57.65 45 56 39.598 41.145 33.987 43.173 40.881 57.65" style="fill:#fec9a3"/><polygon points="21.898 41.928 27.494 42.916 29 39 32 39 33.987 43.173 39.598 41.145 37 34 24.375 34 21.898 41.928" style="fill:#666"/><path d="M20,48l-8,1.333V53l9.5-.792a4,4,0,0,0,3.4-2.55l2.593-6.742-5.6-.988Z" style="fill:#fec9a3"/><path d="M42,60l6.55-1.637A1.2,1.2,0,0,0,48.259,56H45l-4.119,1.65Z" style="fill:#98bf4e"/><path d="M16.294,23.544a4,4,0,0,0-.945,3.373L17,36l.054-.013A2.473,2.473,0,0,0,17,36.5a2.5,2.5,0,1,0,3.94-2.038L20,26l3-3-3.234-3.361Z" style="fill:#fec9a3"/><path d="M59,22.5a2.5,2.5,0,0,0-5,0,2.546,2.546,0,0,0,.033.329L48,28V25H43v5.387a3.613,3.613,0,0,0,6.031,2.685L57.1,24.919a2.493,2.493,0,0,0,1.828-1.846L59,23l-.049-.012A2.532,2.532,0,0,0,59,22.5Z" style="fill:#fec9a3"/><path d="M48,20a4,4,0,0,0-4-4H24.8a4,4,0,0,0-2.989,1.343l-2.041,2.3L23,23l2-2h3L25,32l-.625,2H37V32l4-11h2v4h5Z" style="fill:#98bf4e"/><rect x="20" y="58" width="15" height="2" style="fill:#d6d9db"/><rect x="16" y="58" width="2" height="2" style="fill:#d6d9db"/><rect x="51" y="50" width="11" height="2" style="fill:#d6d9db"/><rect x="45" y="45" width="10" height="2" style="fill:#d6d9db"/><rect x="2" y="44" width="15" height="2" style="fill:#d6d9db"/><rect x="2" y="36" width="2" height="2" style="fill:#d6d9db"/><rect x="6" y="36" width="7" height="2" style="fill:#d6d9db"/></g></svg>
